<?xml version="1.0" encoding="UTF-8"?><svg id="Layer_2" xmlns="http://www.w3.org/2000/svg" viewBox="0 0 1740.32 341.94"><defs><style>.cls-1{fill:#de2e26;}.cls-2{fill:#fff;stroke:#000;stroke-miterlimit:10;stroke-width:7px;}</style></defs><g id="BOX"><g><rect class="cls-1" x="3" y="3" width="1734.32" height="335.94"/><path d="M1734.32,6V335.94H6V6H1734.32m6-6H0V341.94H1740.32V0h0Z"/></g></g><g id="diamond"><g><path class="cls-2" d="M149.96,226.82c11.4-36.15,28.8-84.75,48.15-116.55,8.25-2.1,16.65-3.9,25.2-3.9,18.6,0,34.35,10.2,34.35,30.45,0,15.3-10.2,31.95-18.75,44.1-16.65,23.7-55.8,46.05-84.9,46.05-1.35,0-2.7,0-4.05-.15Zm76.05-80.1c0-6.15-3.9-8.7-9.75-8.7-1.05,0-2.1,0-3.15,.15-8.7,16.2-15.6,33.9-22.05,51.15,14.55-3.9,34.95-27.3,34.95-42.6Z"/><path class="cls-2" d="M284.96,111.62c11.1-2.85,22.8-3.15,34.2-3.15-19.8,35.7-38.55,73.65-52.35,112.05-9.45,3.6-19.35,5.85-29.4,7.5,11.85-39.9,29.4-79.05,47.55-116.4Z"/><path class="cls-2" d="M341.96,196.52c-7.95,1.2-16.65,2.7-24,6-4.5,5.25-8.55,14.4-10.95,21-8.85,3.6-18.3,5.4-27.75,5.4-1.8,0-3.9,0-5.7-.3,18.3-38.7,44.4-79.8,71.1-113.7,15-6.75,38.85-10.95,55.5-12.9-14.25,37.95-26.7,77.25-35.85,116.7-10.2,5.4-23.1,10.2-34.65,11.7,3.45-11.55,7.8-22.8,12.3-33.9Zm9.6-28.8c4.8-9,8.25-19.35,10.95-29.1l-10.35,3.6c-6.6,8.7-12.15,18.6-17.4,28.2,5.25-1.65,11.4-1.95,16.8-2.7Z"/><path class="cls-2" d="M380.66,187.82c14.25-27.75,29.55-54.9,45.45-81.6,9.9-3.15,20.7-4.8,31.05-6.15-4.8,17.55-8.4,35.55-12.15,53.25,12-12.15,21.6-27.3,36.15-44.25,11.7-3.6,24.9-4.95,37.05-5.85-15.6,40.95-30.9,79.05-49.35,117.15-9.45,2.4-19.8,4.8-29.55,4.8-.9,0-1.65-.15-2.55-.15,5.1-14.85,12.3-29.4,18.75-43.65-13.5,15.9-28.5,31.05-43.05,45.9v-3.6c0-12.6,.45-25.35,2.4-37.8-7.8,11.85-14.1,25.05-20.1,37.8-10.65,4.05-23.25,5.55-34.5,7.05,6-14.7,13.2-28.8,20.4-42.9Z"/><path class="cls-2" d="M496.01,202.82c0-15.45,6.9-34.35,14.1-48.15,13.5-25.95,33.15-46.8,65.85-46.8,16.65,0,24,7.05,24,22.95s-8.4,36.6-17.4,50.25c-12.6,19.2-34.65,47.55-61.05,47.55-17.55,0-25.5-9.75-25.5-25.8Zm70.65-57.15c0-3.9-1.8-8.1-6.6-8.1-11.1,0-25.35,22.35-28.65,31.2-2.1,5.7-4.8,13.8-4.8,19.95,0,3.3,.75,7.2,5.1,7.2,14.1,0,34.95-38.25,34.95-50.25Z"/><path class="cls-2" d="M626.8,229.67c.15-9.6,.3-19.05,.3-28.65,0-9,0-18.15-.3-27.15-7.8,12.6-13.8,27.15-18.9,41.1l-30.45,6.75c11.7-33.45,26.85-70.05,44.55-100.65,9.15-3.6,21.45-6.15,31.2-6.75-.9,16.05-1.65,32.25-2.25,48.3,6.6-18.9,13.2-37.5,21.6-55.2,10.95-3.3,24.6-4.65,36-5.25-8.4,16.2-15.75,32.85-22.95,49.65-10.05,23.1-19.65,46.5-29.1,69.9l-29.7,7.95Z"/><path class="cls-2" d="M670.75,222.02c4.5-13.2,10.05-26.1,15.6-38.85,10.35-24,21.45-47.55,33.3-70.95,9.45-5.55,23.7-8.1,34.5-8.1,17.7,0,28.65,5.4,28.65,24.75,0,41.55-47.7,97.95-90.9,97.95-7.35,0-14.55-1.65-21.15-4.8Zm76.95-65.4c.6-2.1,1.2-4.35,1.2-6.6,0-6.3-4.05-11.1-10.5-11.1-.75,0-1.65,0-2.4,.15-11.1,17.25-20.7,36.3-28.2,55.35,17.85-3.9,34.5-20.4,39.9-37.8Z"/><path class="cls-2" d="M872.35,112.37c16.95-5.4,39-7.65,56.4-9.45l-14.4,26.4c-7.35,1.2-14.85,3.3-22.2,5.4-6.15,9.3-10.05,16.8-15.15,26.7,7.95-1.35,20.25-3.75,30.3-3.9l-15.15,25.5c-8.85,2.4-17.7,4.35-26.7,6-5.25,5.4-13.5,27.3-15.9,34.05-9.75,4.05-24.6,8.7-34.8,8.7,14.1-36.45,36-87.6,57.6-119.4Z"/><path class="cls-2" d="M904.45,202.82c0-15.45,6.9-34.35,14.1-48.15,13.5-25.95,33.15-46.8,65.85-46.8,16.65,0,24,7.05,24,22.95s-8.4,36.6-17.4,50.25c-12.6,19.2-34.65,47.55-61.05,47.55-17.55,0-25.5-9.75-25.5-25.8Zm70.65-57.15c0-3.9-1.8-8.1-6.6-8.1-11.1,0-25.35,22.35-28.65,31.2-2.1,5.7-4.8,13.8-4.8,19.95,0,3.3,.75,7.2,5.1,7.2,14.1,0,34.95-38.25,34.95-50.25Z"/><path class="cls-2" d="M1001.05,196.82c0-7.5,1.65-14.85,3.9-21.9,10.5-33,34.35-67.5,71.85-70.65,.75,0,1.65-.15,2.4-.15,17.85,0,27.3,13.95,27.3,30.75,0,34.2-41.25,89.55-78,89.55-17.25,0-27.45-10.2-27.45-27.6Zm75.45-54.75c0-4.35-1.65-7.65-6.45-7.65-18.15,0-39.75,31.05-39.75,48,0,5.55,1.95,12.75,8.7,12.75,16.2,0,37.5-38.7,37.5-53.1Z"/><path class="cls-2" d="M1099.15,227.86c5.1-12.45,11.1-24.6,16.8-36.75,8.1-16.95,16.2-33.9,24.75-50.55-9.6,.3-22.05,4.8-31.8,6.6,4.5-11.55,7.35-19.2,15.45-29.7,29.55-5.7,59.55-10.5,89.55-13.5l-13.65,27.6c-10.05,1.35-18.9,1.8-28.65,4.65-14.55,26.25-28.5,53.7-39.6,81.6-7.2,5.1-19.65,10.35-28.35,10.35-1.5,0-3-.15-4.5-.3Z"/><path class="cls-2" d="M1212.25,114.62l28.95-9.15c-7.95,13.35-13.8,33-17.85,47.85l38.55-46.05-3.9,41.7c9.6-16.35,19.8-32.7,31.35-47.7l39.75-4.2c-27.45,32.85-55.2,79.5-74.7,117.3-7.5,5.1-19.95,11.25-28.65,13.5,.15-19.2,4.05-39.3,8.55-57.75-9.6,14.25-17.4,30.6-24.15,46.35-9,5.85-21.6,10.2-32.1,12.15,6.9-37.5,17.1-79.95,34.2-114Z"/><path class="cls-2" d="M1285.9,202.82c0-15.45,6.9-34.35,14.1-48.15,13.5-25.95,33.15-46.8,65.85-46.8,16.65,0,24,7.05,24,22.95s-8.4,36.6-17.4,50.25c-12.6,19.2-34.65,47.55-61.05,47.55-17.55,0-25.5-9.75-25.5-25.8Zm70.65-57.15c0-3.9-1.8-8.1-6.6-8.1-11.1,0-25.35,22.35-28.65,31.2-2.1,5.7-4.8,13.8-4.8,19.95,0,3.3,.75,7.2,5.1,7.2,14.1,0,34.95-38.25,34.95-50.25Z"/><path class="cls-2" d="M1404.55,194.72c-4.8,8.55-8.7,17.85-11.55,27.15l-25.65,4.2c3.3-12.9,8.7-25.65,13.8-37.8,9.45-23.1,20.25-45.75,31.2-68.1,13.65-5.7,28.8-10.05,43.5-10.05,12.45,0,33.75,4.35,33.75,21.3,0,2.7-.6,5.25-1.65,7.8-9.15,24.3-36.9,36-59.25,41.4,3.15,11.25,10.65,27.75,17.1,37.35-6.45,5.25-15.6,9.3-23.4,10.95-5.25-3.3-15.6-28.65-17.85-34.2Zm51.15-54.75c.3-.6,.45-1.2,.45-1.8,0-3.15-5.1-3.6-7.2-3.6-6,0-13.2,1.8-18.9,3.9-3.9,6.75-7.2,14.1-10.35,21.45,10.35-2.85,30.9-8.55,36-19.95Z"/><path class="cls-2" d="M1458.1,229.67c9.15-22.8,18.6-45.45,28.65-67.8,6.9-15.6,13.95-31.5,22.5-46.2,12.15-5.4,25.8-10.35,39-12.15-8.85,13.05-17.55,26.85-24.6,40.95,19.05-11.1,38.25-22.05,57.6-32.7,1.2,4.5,1.5,9.6,1.5,14.25,0,5.85-.75,11.7-2.25,17.4-19.35,9-37.95,19.8-56.1,31.05,4.2,13.65,10.35,27.15,16.95,39.9-6.15,5.85-17.7,10.65-25.5,13.2-6.6-10.2-12.6-21.6-16.5-33.15-4.05,8.55-7.8,17.55-10.5,26.55-8.1,4.2-21,8.7-30,8.7h-.75Z"/></g></g></svg>