<?xml version="1.0" encoding="UTF-8"?><svg id="Layer_2" xmlns="http://www.w3.org/2000/svg" viewBox="0 0 1740.32 341.94"><defs><style>.cls-1{fill:#de2e26;}.cls-2{fill:#fff;stroke:#000;stroke-miterlimit:10;stroke-width:7px;}</style></defs><g id="BOX"><g><rect class="cls-1" x="3" y="3" width="1734.32" height="335.94"/><path d="M1734.32,6V335.94H6V6H1734.32m6-6H0V341.94H1740.32V0h0Z"/></g></g><g id="ranging"><g><path class="cls-2" d="M204.85,192.87l-11.55,27.45c-9.3,.75-19.05,3.9-27.75,6.75,11.55-33.6,24.9-67.35,41.25-98.85,15.9-10.5,43.05-22.2,62.25-22.2,9.6,0,18.75,3.15,18.75,14.4,0,2.55-.45,4.8-1.05,7.2-5.7,25.2-33.75,47.7-55.35,58.5l14.4,31.35c-5.4,6-17.4,10.2-24.9,11.7l-16.05-36.3Zm12.45-27.3c7.2-3.6,34.05-18.3,34.05-28.8,0-2.1-1.5-2.85-3.45-2.85-4.95,0-13.35,4.05-17.85,6.45l-12.75,25.2Z"/><path class="cls-2" d="M315.4,198.12c-7.95,1.2-16.65,2.7-24,6-4.5,5.25-8.55,14.4-10.95,21-8.85,3.6-18.3,5.4-27.75,5.4-1.8,0-3.9,0-5.7-.3,18.3-38.7,44.4-79.8,71.1-113.7,15-6.75,38.85-10.95,55.5-12.9-14.25,37.95-26.7,77.25-35.85,116.7-10.2,5.4-23.1,10.2-34.65,11.7,3.45-11.55,7.8-22.8,12.3-33.9Zm9.6-28.8c4.8-9,8.25-19.35,10.95-29.1l-10.35,3.6c-6.6,8.7-12.15,18.6-17.4,28.2,5.25-1.65,11.4-1.95,16.8-2.7Z"/><path class="cls-2" d="M392.8,233.37l2.55-58.2c-7.8,13.05-13.05,27.3-17.7,41.7-10.95,2.85-22.05,5.25-33.15,7.05,13.35-38.25,29.7-75.6,48.75-111.3l34.2-8.1c-1.05,18.3-2.1,36.75-3,55.05,7.35-15.3,13.95-30.9,21.45-46.2,9.3-2.55,18.9-4.95,28.65-4.95,2.25,0,4.5,.15,6.75,.6-9.75,15-18,30.9-25.95,46.95-11.7,23.1-22.5,46.65-33.3,70.2l-29.25,7.2Z"/><path class="cls-2" d="M452.95,198.57c0-7.65,1.65-15.15,4.2-22.35,13.5-37.5,48.75-70.35,90.3-70.35,6,0,11.85,.75,17.7,2.1-3.3,11.1-8.55,21.6-15,31.2-3.9-1.35-7.95-1.95-12-1.95-27,0-57.45,25.95-57.45,53.7,0,6.45,1.8,12.15,9.45,12.15,11.4,0,21.75-11.85,26.4-21.3l-16.95,.9,11.7-18.9c14.4-3.75,29.25-6,44.1-7.8-10.65,27.15-27.3,52.95-53.4,67.5-6.45,3.6-13.5,6-20.85,6-18.15,0-28.2-13.65-28.2-30.9Z"/><path class="cls-2" d="M591.39,113.07c10.95-3.9,22.65-6.6,34.2-7.8-21.3,34.5-40.35,73.35-54.3,111.3-9.9,4.35-20.85,7.65-31.5,8.85,11.25-37.2,30-80.4,51.6-112.35Z"/><path class="cls-2" d="M635.04,233.37l2.55-58.2c-7.8,13.05-13.05,27.3-17.7,41.7-10.95,2.85-22.05,5.25-33.15,7.05,13.35-38.25,29.7-75.6,48.75-111.3l34.2-8.1c-1.05,18.3-2.1,36.75-3,55.05,7.35-15.3,13.95-30.9,21.45-46.2,9.3-2.55,18.9-4.95,28.65-4.95,2.25,0,4.5,.15,6.75,.6-9.75,15-18,30.9-25.95,46.95-11.7,23.1-22.5,46.65-33.3,70.2l-29.25,7.2Z"/><path class="cls-2" d="M695.19,198.57c0-7.65,1.65-15.15,4.2-22.35,13.5-37.5,48.75-70.35,90.3-70.35,6,0,11.85,.75,17.7,2.1-3.3,11.1-8.55,21.6-15,31.2-3.9-1.35-7.95-1.95-12-1.95-27,0-57.45,25.95-57.45,53.7,0,6.45,1.8,12.15,9.45,12.15,11.4,0,21.75-11.85,26.4-21.3l-16.95,.9,11.7-18.9c14.4-3.75,29.25-6,44.1-7.8-10.65,27.15-27.3,52.95-53.4,67.5-6.45,3.6-13.5,6-20.85,6-18.15,0-28.2-13.65-28.2-30.9Z"/><path class="cls-2" d="M890.79,113.97c16.95-5.4,39-7.65,56.4-9.45l-14.4,26.4c-7.35,1.2-14.85,3.3-22.2,5.4-6.15,9.3-10.05,16.8-15.15,26.7,7.95-1.35,20.25-3.75,30.3-3.9l-15.15,25.5c-8.85,2.4-17.7,4.35-26.7,6-5.25,5.4-13.5,27.3-15.9,34.05-9.75,4.05-24.6,8.7-34.8,8.7,14.1-36.45,36-87.6,57.6-119.4Z"/><path class="cls-2" d="M922.89,204.42c0-15.45,6.9-34.35,14.1-48.15,13.5-25.95,33.15-46.8,65.85-46.8,16.65,0,24,7.05,24,22.95s-8.4,36.6-17.4,50.25c-12.6,19.2-34.65,47.55-61.05,47.55-17.55,0-25.5-9.75-25.5-25.8Zm70.65-57.15c0-3.9-1.8-8.1-6.6-8.1-11.1,0-25.35,22.35-28.65,31.2-2.1,5.7-4.8,13.8-4.8,19.95,0,3.3,.75,7.2,5.1,7.2,14.1,0,34.95-38.25,34.95-50.25Z"/><path class="cls-2" d="M1019.49,198.42c0-7.5,1.65-14.85,3.9-21.9,10.5-33,34.35-67.5,71.85-70.65,.75,0,1.65-.15,2.4-.15,17.85,0,27.3,13.95,27.3,30.75,0,34.2-41.25,89.55-78,89.55-17.25,0-27.45-10.2-27.45-27.6Zm75.45-54.75c0-4.35-1.65-7.65-6.45-7.65-18.15,0-39.75,31.05-39.75,48,0,5.55,1.95,12.75,8.7,12.75,16.2,0,37.5-38.7,37.5-53.1Z"/><path class="cls-2" d="M1117.59,229.47c5.1-12.45,11.1-24.6,16.8-36.75,8.1-16.95,16.2-33.9,24.75-50.55-9.6,.3-22.05,4.8-31.8,6.6,4.5-11.55,7.35-19.2,15.45-29.7,29.55-5.7,59.55-10.5,89.55-13.5l-13.65,27.6c-10.05,1.35-18.9,1.8-28.65,4.65-14.55,26.25-28.5,53.7-39.6,81.6-7.2,5.1-19.65,10.35-28.35,10.35-1.5,0-3-.15-4.5-.3Z"/><path class="cls-2" d="M1230.69,116.22l28.95-9.15c-7.95,13.35-13.8,33-17.85,47.85l38.55-46.05-3.9,41.7c9.6-16.35,19.8-32.7,31.35-47.7l39.75-4.2c-27.45,32.85-55.2,79.5-74.7,117.3-7.5,5.1-19.95,11.25-28.65,13.5,.15-19.2,4.05-39.3,8.55-57.75-9.6,14.25-17.4,30.6-24.15,46.35-9,5.85-21.6,10.2-32.1,12.15,6.9-37.5,17.1-79.95,34.2-114Z"/><path class="cls-2" d="M1304.34,204.42c0-15.45,6.9-34.35,14.1-48.15,13.5-25.95,33.15-46.8,65.85-46.8,16.65,0,24,7.05,24,22.95s-8.4,36.6-17.4,50.25c-12.6,19.2-34.65,47.55-61.05,47.55-17.55,0-25.5-9.75-25.5-25.8Zm70.65-57.15c0-3.9-1.8-8.1-6.6-8.1-11.1,0-25.35,22.35-28.65,31.2-2.1,5.7-4.8,13.8-4.8,19.95,0,3.3,.75,7.2,5.1,7.2,14.1,0,34.95-38.25,34.95-50.25Z"/><path class="cls-2" d="M1422.98,196.32c-4.8,8.55-8.7,17.85-11.55,27.15l-25.65,4.2c3.3-12.9,8.7-25.65,13.8-37.8,9.45-23.1,20.25-45.75,31.2-68.1,13.65-5.7,28.8-10.05,43.5-10.05,12.45,0,33.75,4.35,33.75,21.3,0,2.7-.6,5.25-1.65,7.8-9.15,24.3-36.9,36-59.25,41.4,3.15,11.25,10.65,27.75,17.1,37.35-6.45,5.25-15.6,9.3-23.4,10.95-5.25-3.3-15.6-28.65-17.85-34.2Zm51.15-54.75c.3-.6,.45-1.2,.45-1.8,0-3.15-5.1-3.6-7.2-3.6-6,0-13.2,1.8-18.9,3.9-3.9,6.75-7.2,14.1-10.35,21.45,10.35-2.85,30.9-8.55,36-19.95Z"/><path class="cls-2" d="M1476.54,231.27c9.15-22.8,18.6-45.45,28.65-67.8,6.9-15.6,13.95-31.5,22.5-46.2,12.15-5.4,25.8-10.35,39-12.15-8.85,13.05-17.55,26.85-24.6,40.95,19.05-11.1,38.25-22.05,57.6-32.7,1.2,4.5,1.5,9.6,1.5,14.25,0,5.85-.75,11.7-2.25,17.4-19.35,9-37.95,19.8-56.1,31.05,4.2,13.65,10.35,27.15,16.95,39.9-6.15,5.85-17.7,10.65-25.5,13.2-6.6-10.2-12.6-21.6-16.5-33.15-4.05,8.55-7.8,17.55-10.5,26.55-8.1,4.2-21,8.7-30,8.7h-.75Z"/></g></g></svg>