<?xml version="1.0" encoding="utf-8"?>
<!-- Generator: Adobe Illustrator 16.0.0, SVG Export Plug-In . SVG Version: 6.00 Build 0)  -->
<!DOCTYPE svg PUBLIC "-//W3C//DTD SVG 1.1//EN" "http://www.w3.org/Graphics/SVG/1.1/DTD/svg11.dtd">
<svg version="1.1" id="Layer_1" xmlns="http://www.w3.org/2000/svg" xmlns:xlink="http://www.w3.org/1999/xlink" x="0px" y="0px"
	 width="595.28px" height="348.889px" viewBox="0 0 595.28 348.889" enable-background="new 0 0 595.28 348.889"
	 xml:space="preserve">
<g id="left_wing_clip_group">
	<defs>
		<rect id="SVGID_1_" x="-49.037" y="-57.259" width="700" height="429.333"/>
	</defs>
	<clipPath id="SVGID_2_">
		<use xlink:href="#SVGID_1_"  overflow="visible"/>
	</clipPath>
</g>
<g id="right_wing_clip_group">
	<defs>
		<rect id="SVGID_3_" x="-49.037" y="-57.259" width="700" height="429.333"/>
	</defs>
	<clipPath id="SVGID_4_">
		<use xlink:href="#SVGID_3_"  overflow="visible"/>
	</clipPath>
</g>
<g id="monster_body_clip_group">
	<defs>
		<rect id="SVGID_5_" x="-49.037" y="-57.259" width="700" height="429.333"/>
	</defs>
	<clipPath id="SVGID_6_">
		<use xlink:href="#SVGID_5_"  overflow="visible"/>
	</clipPath>
	<path clip-path="url(#SVGID_6_)" fill="#FBB040" d="M295.649,42.026c44.687,0,80.913,36.226,80.913,80.913v54.81
		c0,11.227-2.335,21.957-6.508,31.694c-2.807,6.508-6.433,12.594-10.755,18.107c-2.012,2.559-4.198,5.018-6.508,7.327
		c-14.655,14.68-34.874,23.772-57.13,23.772c-39.966,0-73.399-29.337-79.808-67.538c-0.745-4.348-1.117-8.818-1.117-13.363v-54.81
		C214.736,78.252,250.962,42.026,295.649,42.026"/>
	<path clip-path="url(#SVGID_6_)" fill="#11233D" d="M329.841,89.357c-7.664,0-14.518,3.413-19.168,8.785
		c-4.105-13.117-16.351-22.637-30.821-22.637c-17.834,0-32.291,14.457-32.291,32.291s14.457,32.291,32.291,32.291
		c11.317,0,21.259-5.833,27.024-14.645c4.042,8.643,12.791,14.645,22.965,14.645c14.009,0,25.364-11.356,25.364-25.365
		C355.205,100.713,343.85,89.357,329.841,89.357"/>
	<path clip-path="url(#SVGID_6_)" fill="#ECF1F4" d="M306.723,102.376c0,17.834-14.458,32.291-32.292,32.291
		s-32.291-14.457-32.291-32.291s14.457-32.291,32.291-32.291S306.723,84.542,306.723,102.376"/>
	<path clip-path="url(#SVGID_6_)" fill="#F05354" d="M296.113,102.376c0,11.974-9.707,21.682-21.682,21.682
		c-11.975,0-21.682-9.708-21.682-21.682c0-11.975,9.707-21.682,21.682-21.682C286.406,80.694,296.113,90.401,296.113,102.376"/>
	<path clip-path="url(#SVGID_6_)" fill="#11233D" d="M274.431,115.984c-7.504,0-13.608-6.105-13.608-13.608
		s6.104-13.607,13.608-13.607c7.504,0,13.608,6.104,13.608,13.607S281.935,115.984,274.431,115.984"/>
	<path clip-path="url(#SVGID_6_)" fill="#ECF1F4" d="M270.285,88.181c0,3.992-3.236,7.228-7.228,7.228
		c-3.991,0-7.227-3.236-7.227-7.228c0-3.992,3.236-7.227,7.227-7.227C267.049,80.954,270.285,84.189,270.285,88.181"/>
	<path clip-path="url(#SVGID_6_)" fill="#ECF1F4" d="M349.785,109.302c0,14.009-11.356,25.365-25.365,25.365
		s-25.365-11.356-25.365-25.365c0-14.009,11.356-25.365,25.365-25.365S349.785,95.293,349.785,109.302"/>
	<path clip-path="url(#SVGID_6_)" fill="#F05354" d="M341.451,109.302c0,9.406-7.625,17.031-17.031,17.031
		s-17.031-7.625-17.031-17.031c0-9.406,7.625-17.031,17.031-17.031S341.451,99.896,341.451,109.302"/>
	<path clip-path="url(#SVGID_6_)" fill="#11233D" d="M324.42,119.886c-5.836,0-10.584-4.748-10.584-10.584
		c0-5.835,4.748-10.583,10.584-10.583s10.584,4.748,10.584,10.583C335.004,115.138,330.256,119.886,324.42,119.886"/>
	<path clip-path="url(#SVGID_6_)" fill="#ECF1F4" d="M321.163,98.152c0,3.136-2.542,5.677-5.677,5.677
		c-3.136,0-5.678-2.541-5.678-5.677c0-3.135,2.542-5.677,5.678-5.677C318.621,92.475,321.163,95.017,321.163,98.152"/>
	<path clip-path="url(#SVGID_6_)" fill="#324057" d="M343.749,163.317c-4.607-0.901-9.505,0.397-13.995,1.378
		c-5.106,1.116-10.175,2.415-15.328,3.305c-10.019,1.729-20.249,2.42-30.366,1.121c-5.286-0.678-10.508-1.813-15.709-2.958
		c-5.156-1.134-10.401-2.566-15.683-2.943c-3.575-0.255-7.486,0.119-10.3,2.566c-2.84,2.471-3.962,6.408-3.66,10.07
		c0.655,7.937,6.47,15.324,12.064,20.583c6.647,6.25,14.855,10.709,23.52,13.468c18.585,5.917,39.739,3.856,56.501-6.257
		c6.81-4.108,13.147-9.599,17.357-16.405c2.595-4.192,4.65-9.183,4.08-14.2C351.686,168.245,348.65,164.192,343.749,163.317"/>
	<path clip-path="url(#SVGID_6_)" fill="#F05354" d="M331.915,202.736c-0.369,0.184-0.761,0.368-1.13,0.553
		c-0.115,0.069-0.23,0.139-0.345,0.185c-3.574,1.729-7.425,3.204-11.552,4.403c-6.984,2.075-14.754,3.297-23.238,3.366
		c-13.487-0.115-25.175-3.158-34.789-7.77c-0.138-0.068-0.276-0.138-0.415-0.208c-0.345-0.161-0.691-0.322-1.014-0.483
		c-0.023-0.023-0.069-0.023-0.092-0.046c3.965-6.802,11.342-11.365,19.78-11.365c6.478,0,12.334,2.697,16.507,7.031
		c4.15-4.334,10.005-7.031,16.484-7.031C320.549,191.371,327.927,195.934,331.915,202.736"/>
	<path clip-path="url(#SVGID_6_)" fill="#E1E7EE" d="M243.919,138.293c0,3.742-3.034,6.776-6.776,6.776
		c-3.742,0-6.776-3.034-6.776-6.776c0-3.742,3.034-6.776,6.776-6.776C240.885,131.517,243.919,134.551,243.919,138.293"/>
	<path clip-path="url(#SVGID_6_)" fill="#E1E7EE" d="M333.779,70.085c0,3.742-3.034,6.776-6.776,6.776s-6.775-3.034-6.775-6.776
		c0-3.742,3.033-6.776,6.775-6.776S333.779,66.343,333.779,70.085"/>
	<path clip-path="url(#SVGID_6_)" fill="#E1E7EE" d="M338.691,232.298c0,3.742-3.034,6.776-6.776,6.776s-6.776-3.034-6.776-6.776
		s3.034-6.776,6.776-6.776S338.691,228.556,338.691,232.298"/>
	<path clip-path="url(#SVGID_6_)" fill="#E1E7EE" d="M310.367,239.928c0,2.505-2.031,4.536-4.536,4.536s-4.536-2.031-4.536-4.536
		s2.031-4.536,4.536-4.536S310.367,237.423,310.367,239.928"/>
	<path clip-path="url(#SVGID_6_)" fill="#E1E7EE" d="M364.122,146.302c0,2.505-2.031,4.536-4.536,4.536s-4.536-2.031-4.536-4.536
		c0-2.505,2.031-4.536,4.536-4.536S364.122,143.797,364.122,146.302"/>
	<path clip-path="url(#SVGID_6_)" fill="#E1E7EE" d="M310.367,62.736c0,2.505-2.031,4.536-4.536,4.536s-4.536-2.031-4.536-4.536
		c0-2.505,2.031-4.536,4.536-4.536S310.367,60.231,310.367,62.736"/>
	<path clip-path="url(#SVGID_6_)" fill="#E1E7EE" d="M260.366,146.302c0,2.505-2.031,4.536-4.536,4.536s-4.536-2.031-4.536-4.536
		c0-2.505,2.031-4.536,4.536-4.536S260.366,143.797,260.366,146.302"/>
	<path clip-path="url(#SVGID_6_)" fill="#E1E7EE" d="M243.196,211.243c0,2.505-2.031,4.536-4.536,4.536s-4.536-2.031-4.536-4.536
		s2.031-4.536,4.536-4.536S243.196,208.738,243.196,211.243"/>
</g>
</svg>
