<?xml version="1.0" encoding="UTF-8"?><svg xmlns="http://www.w3.org/2000/svg" xmlns:xlink="http://www.w3.org/1999/xlink" viewBox="0 0 292.73 109.01"><defs><style>.cls-1,.cls-2{fill:#fff;}.cls-2{stroke:#1a6432;stroke-miterlimit:10;stroke-width:1.67px;}.cls-3{isolation:isolate;}.cls-4{fill:#64a644;}.cls-5{opacity:.58;}.cls-6{fill:url(#radial-gradient);}.cls-7{fill:#bdd748;}.cls-8{opacity:.38;}.cls-9{opacity:.32;}.cls-10{fill:#355025;}.cls-11{mix-blend-mode:screen;opacity:.45;}.cls-12{fill:url(#radial-gradient-2);}.cls-13{fill:url(#linear-gradient);}.cls-14{fill:#010101;}</style><linearGradient id="linear-gradient" x1="146.36" y1="5.88" x2="146.36" y2="97.24" gradientTransform="matrix(1, 0, 0, 1, 0, 0)" gradientUnits="userSpaceOnUse"><stop offset=".21" stop-color="#f7ed43"/><stop offset=".61" stop-color="#64a644"/></linearGradient><radialGradient id="radial-gradient" cx="146.02" cy="222.34" fx="146.02" fy="222.34" r="153.45" gradientTransform="translate(17.93 65.71) scale(.9 .17)" gradientUnits="userSpaceOnUse"><stop offset=".48" stop-color="#f7ed43"/><stop offset="1" stop-color="#010101"/></radialGradient><radialGradient id="radial-gradient-2" cx="144.82" cy="103.28" fx="144.82" fy="103.28" r="142.11" gradientTransform="translate(15.91 -16.1) scale(.91 .2)" xlink:href="#radial-gradient"/></defs><g class="cls-3"><g id="Layer_2"><g id="startbtn"><g><g><g class="cls-9"><rect class="cls-14" x="2.27" y="11.43" width="288.19" height="97.58" rx="32.86" ry="32.86"/></g><g class="cls-5"><rect class="cls-1" x="2.27" y="0" width="288.19" height="97.58" rx="32.86" ry="32.86"/></g><g><rect class="cls-4" x="1.13" y="2.5" width="290.46" height="99.84" rx="34" ry="34"/><path class="cls-10" d="M257.6,3.63c18.07,0,32.86,14.79,32.86,32.86v31.85c0,18.07-14.79,32.86-32.86,32.86H35.13c-18.07,0-32.86-14.79-32.86-32.86v-31.85C2.27,18.42,17.06,3.63,35.13,3.63h222.46m0-2.27H35.13C15.76,1.36,0,17.12,0,36.49v31.85c0,19.37,15.76,35.13,35.13,35.13h222.46c19.37,0,35.13-15.76,35.13-35.13v-31.85c0-19.37-15.76-35.13-35.13-35.13h0Z"/></g><g><path class="cls-4" d="M35.13,4.39h222.46c17.72,0,32.1,14.39,32.1,32.1v31.85c0,17.72-14.39,32.1-32.1,32.1H35.13c-17.72,0-32.1-14.39-32.1-32.1v-31.85C3.03,18.78,17.41,4.39,35.13,4.39Z"/><path class="cls-7" d="M257.6,5.15c17.29,0,31.35,14.06,31.35,31.35v31.85c0,17.29-14.06,31.35-31.35,31.35H35.13c-17.29,0-31.35-14.06-31.35-31.35v-31.85C3.78,19.21,17.84,5.15,35.13,5.15h222.46m0-1.51H35.13C17.06,3.63,2.27,18.42,2.27,36.49v31.85c0,18.07,14.79,32.86,32.86,32.86h222.46c18.07,0,32.86-14.79,32.86-32.86v-31.85c0-18.07-14.79-32.86-32.86-32.86h0Z"/></g><g class="cls-8"><rect class="cls-13" x="8.53" y="5.88" width="275.67" height="91.35" rx="30.77" ry="30.77"/></g><g class="cls-11"><rect class="cls-6" x="8.53" y="5.88" width="275.67" height="91.35" rx="30.77" ry="30.77"/></g><g class="cls-11"><rect class="cls-12" x="2.27" y="3.63" width="288.19" height="97.58" rx="32.86" ry="32.86"/></g></g><g><path class="cls-2" d="M44.14,69.7c-1.17-1.44-1.76-2.74-1.76-3.9s.97-2.68,2.91-4.57c1.13-1.08,2.33-1.63,3.59-1.63s3.03,1.13,5.28,3.39c.63,.77,1.53,1.5,2.71,2.2,1.17,.7,2.26,1.05,3.25,1.05,4.2,0,6.3-1.72,6.3-5.15,0-1.04-.58-1.91-1.73-2.61-1.15-.7-2.59-1.21-4.3-1.52-1.72-.32-3.57-.82-5.56-1.52-1.99-.7-3.84-1.52-5.56-2.47-1.72-.95-3.15-2.45-4.3-4.51-1.15-2.05-1.73-4.53-1.73-7.42,0-3.97,1.48-7.44,4.44-10.4s6.99-4.44,12.09-4.44c2.71,0,5.18,.35,7.42,1.05,2.24,.7,3.78,1.41,4.64,2.13l1.69,1.29c1.4,1.31,2.1,2.42,2.1,3.32s-.54,2.15-1.63,3.73c-1.54,2.26-3.12,3.39-4.74,3.39-.95,0-2.12-.45-3.52-1.35-.14-.09-.4-.32-.78-.68-.38-.36-.73-.65-1.05-.88-.95-.59-2.16-.88-3.62-.88s-2.69,.35-3.66,1.05c-.97,.7-1.46,1.67-1.46,2.91s.58,2.25,1.73,3.01c1.15,.77,2.58,1.29,4.3,1.56,1.72,.27,3.59,.69,5.62,1.25,2.03,.57,3.91,1.25,5.62,2.07,1.72,.81,3.15,2.23,4.3,4.23,1.15,2.01,1.73,4.48,1.73,7.42s-.59,5.52-1.76,7.76c-1.17,2.24-2.71,3.96-4.61,5.18-3.66,2.39-7.57,3.59-11.72,3.59-2.12,0-4.13-.26-6.03-.78s-3.43-1.16-4.61-1.93c-2.39-1.45-4.06-2.85-5.01-4.2l-.61-.75Z"/><path class="cls-2" d="M82.75,26.95h37.67c1.44,0,2.51,.17,3.18,.51,.68,.34,1.13,.87,1.35,1.59,.23,.72,.34,1.67,.34,2.85s-.11,2.11-.34,2.81c-.23,.7-.61,1.19-1.15,1.46-.81,.41-1.96,.61-3.46,.61h-12.94v34.08c0,1.04-.03,1.81-.1,2.3-.07,.5-.27,1.07-.61,1.73-.34,.66-.94,1.12-1.8,1.39-.86,.27-1.99,.41-3.39,.41s-2.52-.14-3.35-.41c-.84-.27-1.42-.73-1.76-1.39-.34-.65-.54-1.24-.61-1.76-.07-.52-.1-1.3-.1-2.34V36.77h-13.01c-1.45,0-2.51-.17-3.18-.51-.68-.34-1.13-.87-1.35-1.59-.23-.72-.34-1.67-.34-2.85s.11-2.11,.34-2.81c.23-.7,.61-1.19,1.15-1.46,.81-.41,1.96-.61,3.46-.61Z"/><path class="cls-2" d="M147.52,30.54l18.29,37.8c.77,1.54,1.15,2.69,1.15,3.46,0,1.63-1.31,3.09-3.93,4.4-1.54,.77-2.74,1.15-3.62,1.15s-1.6-.2-2.17-.61c-.57-.41-.97-.84-1.22-1.29-.25-.45-.6-1.13-1.05-2.03l-3.52-7.32h-18.77l-3.52,7.32c-.45,.9-.8,1.56-1.05,1.96-.25,.41-.66,.82-1.22,1.25-.56,.43-1.29,.64-2.17,.64s-2.09-.38-3.62-1.15c-2.62-1.26-3.93-2.71-3.93-4.34,0-.77,.38-1.92,1.15-3.46l18.29-37.87c.5-1.04,1.25-1.87,2.27-2.51,1.02-.63,2.09-.95,3.22-.95,2.44,0,4.24,1.17,5.42,3.52Zm-5.49,16.26l-4.47,9.28h9.01l-4.54-9.28Z"/><path class="cls-2" d="M208.7,68.27c.68,1.63,1.02,2.8,1.02,3.52,0,1.72-1.4,3.16-4.2,4.34-1.45,.63-2.61,.95-3.49,.95s-1.6-.21-2.17-.64c-.57-.43-.98-.87-1.25-1.32-.45-.86-2.21-4.95-5.28-12.26l-2.1,.14h-8.54v7.66c0,1.04-.03,1.82-.1,2.34-.07,.52-.28,1.12-.64,1.8-.63,1.22-2.39,1.83-5.28,1.83-3.16,0-5.01-.83-5.56-2.51-.27-.77-.41-1.94-.41-3.52V32.98c0-1.04,.03-1.82,.1-2.34,.07-.52,.28-1.12,.64-1.8,.63-1.22,2.39-1.83,5.28-1.83h14.63c3.97,0,7.83,1.45,11.58,4.34,1.81,1.4,3.3,3.3,4.47,5.69,1.17,2.39,1.76,5.06,1.76,7.99,0,5.1-1.69,9.3-5.08,12.6,.99,2.39,2.53,5.94,4.61,10.64Zm-26.01-17.28h8.67c1.31,0,2.62-.5,3.93-1.49,1.31-.99,1.96-2.48,1.96-4.47s-.65-3.49-1.96-4.5-2.66-1.52-4.06-1.52h-8.54v11.99Z"/><path class="cls-2" d="M213.98,26.95h37.67c1.45,0,2.51,.17,3.18,.51,.68,.34,1.13,.87,1.35,1.59,.23,.72,.34,1.67,.34,2.85s-.11,2.11-.34,2.81c-.23,.7-.61,1.19-1.15,1.46-.81,.41-1.96,.61-3.46,.61h-12.94v34.08c0,1.04-.03,1.81-.1,2.3-.07,.5-.27,1.07-.61,1.73-.34,.66-.94,1.12-1.79,1.39-.86,.27-1.99,.41-3.39,.41s-2.52-.14-3.35-.41-1.42-.73-1.76-1.39c-.34-.65-.54-1.24-.61-1.76-.07-.52-.1-1.3-.1-2.34V36.77h-13.01c-1.45,0-2.51-.17-3.18-.51-.68-.34-1.13-.87-1.36-1.59-.23-.72-.34-1.67-.34-2.85s.11-2.11,.34-2.81c.23-.7,.61-1.19,1.15-1.46,.81-.41,1.96-.61,3.46-.61Z"/></g></g></g></g></g></svg>