<?xml version="1.0" encoding="utf-8"?>
<!-- Generator: Adobe Illustrator 16.0.0, SVG Export Plug-In . SVG Version: 6.00 Build 0)  -->
<!DOCTYPE svg PUBLIC "-//W3C//DTD SVG 1.1//EN" "http://www.w3.org/Graphics/SVG/1.1/DTD/svg11.dtd">
<svg version="1.1" xmlns="http://www.w3.org/2000/svg" xmlns:xlink="http://www.w3.org/1999/xlink" x="0px" y="0px"
	 width="595.28px" height="841.89px" viewBox="0 0 595.28 841.89" enable-background="new 0 0 595.28 841.89" xml:space="preserve">
<g id="Layer_1">
</g>
<g id="Layer_2">
</g>
<g id="Layer_3">
	<rect x="0.465" y="2.011" fill="#FFFFFF" width="595.28" height="840.038"/>
	<polygon opacity="0.5" fill="#E72D54" points="-5.915,857.23 56.131,852.714 38.72,753.607 	"/>
	<polygon opacity="0.5" fill="#E72D54" points="4.433,122.284 66.478,117.769 49.067,18.662 	"/>
	<polygon opacity="0.5" fill="#74B72B" points="392.935,110.997 469.617,54.321 437.569,7.375 	"/>
	<polygon opacity="0.5" fill="#74B72B" points="473.846,157.644 550.527,100.968 518.479,54.021 	"/>
	<polygon opacity="0.5" fill="#527CBE" points="186.889,742.768 248.934,738.252 231.523,639.146 	"/>
	<polygon opacity="0.5" fill="#527CBE" points="332.934,374.517 394.979,370.001 377.568,270.895 	"/>
	<polygon opacity="0.5" fill="#0FAF97" points="307.328,705.024 269.503,629.958 351.962,601.402 	"/>
	<polygon opacity="0.5" fill="#0FAF97" points="507.789,453.54 469.965,378.473 552.424,349.917 	"/>
	<polygon opacity="0.5" fill="#0FAF97" points="513.654,789.662 475.83,714.596 558.289,686.039 	"/>
	<polygon opacity="0.5" fill="#3BAA35" points="-36.002,602.546 140.039,539.904 8.632,498.923 	"/>
	<polygon opacity="0.5" fill="#3BAA35" points="215.407,339.117 391.447,276.475 260.041,235.494 	"/>
	<polygon opacity="0.5" fill="#434999" points="95.511,585.194 271.552,522.554 160.318,589.943 	"/>
	<polygon opacity="0.5" fill="#434999" points="459.027,788.639 635.068,725.997 523.834,793.388 	"/>
	<polygon opacity="0.5" fill="#434999" points="307.397,162.435 483.438,99.793 372.205,167.183 	"/>
	<polygon opacity="0.5" fill="#2F4C9C" points="557.19,698.69 556.87,400.798 425.273,576.409 	"/>
	<polygon opacity="0.5" fill="#2F4C9C" points="165.803,386.776 165.378,-8.617 -9.291,224.472 	"/>
	<path fill="#9AC765" d="M-80.036-2.496c-2.263,4.424-8.354,5.83-13.607,3.143l-217.969-111.555
		c-5.251-2.687-7.673-8.45-5.411-12.873l86.356-168.736c2.264-4.422,8.355-5.829,13.607-3.141L0.91-184.104
		c5.251,2.688,7.675,8.452,5.409,12.874L-80.036-2.496z"/>
	<g>
		<defs>
			<rect id="SVGID_7_" x="520.156" y="15.281" width="52.368" height="52.369"/>
		</defs>
		<clipPath id="SVGID_2_">
			<use xlink:href="#SVGID_7_"  overflow="visible"/>
		</clipPath>
		<g clip-path="url(#SVGID_2_)">
			<defs>
				<rect id="SVGID_9_" x="520.156" y="15.281" width="52.368" height="52.369"/>
			</defs>
			<clipPath id="SVGID_4_">
				<use xlink:href="#SVGID_9_"  overflow="visible"/>
			</clipPath>
			<g clip-path="url(#SVGID_4_)">
				<defs>
					<rect id="SVGID_11_" x="520.156" y="15.281" width="52.368" height="52.369"/>
				</defs>
				<clipPath id="SVGID_6_">
					<use xlink:href="#SVGID_11_"  overflow="visible"/>
				</clipPath>
				<g clip-path="url(#SVGID_6_)">
					<path fill-rule="evenodd" clip-rule="evenodd" fill="#CD1A1D" d="M552.268,26.029c1.968-0.08,4.032,0.213,6.046,0.811
						c1.451,0.432,1.701,1.254,0.666,2.375c-0.367,0.398-0.346,0.564-0.163,0.984c0.321,0.74,0.093,1.428-0.629,1.766
						c-0.534,0.252-0.369,0.494-0.319,0.924c0.174,1.496-0.377,1.893-1.994,1.518c-3.139-0.73-6.224-0.619-9.224,0.6
						c-9.194,3.744-12.097,14.973-5.934,22.914c2.112,2.721,1.229,5.99-1.842,6.76c-1.631,0.408-3.013-0.117-4.04-1.389
						c-5.343-6.613-6.825-14.07-4.065-22.066c2.765-8.004,8.573-12.896,16.858-14.789C549.108,26.098,550.612,25.998,552.268,26.029
						z"/>
					<path fill-rule="evenodd" clip-rule="evenodd" fill="#EF7C18" d="M551.151,51.145c0.018-5.986,3.645-11.17,9.277-13.26
						c2.525-0.936,2.896-0.688,3.275,1.949c0.215,1.502-0.111,2.227-1.762,2.826c-3.644,1.324-5.67,4.193-5.84,8.109
						c-0.176,4.066,1.737,6.998,5.341,8.84c0.309,0.16,0.655,0.244,0.965,0.4c1.353,0.68,1.95,2.102,1.302,3.34
						c-0.689,1.314-1.783,1.695-3.229,1.213C555.004,62.738,551.134,57.195,551.151,51.145z"/>
					<path fill-rule="evenodd" clip-rule="evenodd" fill="#CD1A1D" d="M542.665,23.678c-0.012,2.613-2.199,4.779-4.801,4.76
						c-2.613-0.018-4.799-2.209-4.784-4.793c0.015-2.598,2.214-4.775,4.815-4.77C540.498,18.879,542.677,21.072,542.665,23.678z"/>
				</g>
			</g>
		</g>
	</g>
	<g>
		<text transform="matrix(1 0 0 1 520.5547 82.7363)" font-family="'Gabriola'" font-size="14.548">jurong spring</text>
	</g>
	<text transform="matrix(1 0 0 1 537.0547 93.4863)" font-family="'Gabriola'" font-size="14.548">zone A</text>
	<g>
		<path opacity="0.95" fill="#D62A29" d="M294.234,284.062c-2.414,4.564-8.07,6.307-12.634,3.891L92.186,187.734
			c-4.564-2.414-6.306-8.072-3.892-12.635L180.415,0.988c2.415-4.563,8.07-6.305,12.636-3.891L382.465,97.315
			c4.563,2.414,6.305,8.07,3.891,12.634L294.234,284.062z"/>
		<g>
			
				<text transform="matrix(0.8745 0.485 -0.485 0.8745 205.708 115.7627)" fill="#13120D" stroke="#000000" stroke-miterlimit="10" font-family="'TrebuchetMS'" font-size="67.5422">JOIN</text>
			
				<text transform="matrix(0.8745 0.485 -0.485 0.8745 173.0791 174.5908)" fill="#85CEE3" stroke="#000000" stroke-miterlimit="10" font-family="'TrebuchetMS'" font-size="79.1709">FUN</text>
			
				<text transform="matrix(0.485 -0.8745 0.8745 0.485 162.0322 176.9248)" fill="#F0F0F1" font-family="'TrebuchetMS'" font-size="74.9727">THE</text>
		</g>
	</g>
	<g>
		<path opacity="0.95" fill="#E99700" d="M549.756,411.157c-2.412,4.725-8.667,6.359-13.972,3.652L315.635,302.413
			c-5.306-2.709-7.648-8.734-5.236-13.459l92.04-180.275c2.412-4.724,8.667-6.36,13.972-3.653l220.15,112.396
			c5.305,2.709,7.647,8.736,5.234,13.459L549.756,411.157z"/>
		<text transform="matrix(0.9995 -0.0329 0.0329 0.9995 364.8955 237.8682)" font-family="'Gabriola'" font-size="54.2322">With Zone A</text>
		
			<text transform="matrix(0.9995 -0.0329 0.0329 0.9995 361.5195 301.4502)" fill="#D81216" font-family="'Gabriola'" font-size="71.1555">Youth Club</text>
	</g>
	<g>
		<path opacity="0.95" fill="#A24895" d="M228.048,601.848c-3.348,6.404-10.894,9.07-16.856,5.955L-36.273,478.459
			c-5.962-3.114-8.081-10.835-4.732-17.239L86.726,216.839c3.348-6.405,10.895-9.071,16.856-5.954l247.465,129.341
			c5.961,3.117,8.082,10.834,4.733,17.24L228.048,601.848z"/>
		<text transform="matrix(1 0 0 1 16.1387 398.5156)" fill="#FAFDFE" font-family="'TrebuchetMS'" font-size="81.8909">EXPLORE</text>
		<text transform="matrix(1 0 0 1 17.583 427.7627)"><tspan x="0" y="0" fill="#FAFDFE" font-family="'TrebuchetMS'" font-size="19.6927">with an open mind and see what</tspan><tspan x="0" y="23.631" fill="#FAFDFE" font-family="'TrebuchetMS'" font-size="19.6927">is happening the community</tspan><tspan x="0" y="47.264" fill="#FAFDFE" font-family="'TrebuchetMS'" font-size="19.6927">and interact with us and your</tspan><tspan x="0" y="70.895" fill="#FAFDFE" font-family="'TrebuchetMS'" font-size="19.6927">neighbours</tspan></text>
	</g>
	<polygon fill="#85CEE3" points="55.991,839.272 231.917,776.309 100.436,735.568 	"/>
	<g>
		<path opacity="0.95" fill="#85CEE3" d="M498.771,746.213c-3.444,6.511-10.955,9.298-16.772,6.219L240.557,624.688
			c-5.818-3.079-7.737-10.854-4.293-17.365L367.74,358.829c3.446-6.516,10.955-9.3,16.772-6.223l241.44,127.744
			c5.816,3.081,7.739,10.854,4.295,17.367L498.771,746.213z"/>
		<g>
			<text transform="matrix(1 0 0 1 300.1758 541.8379)"><tspan x="0" y="0" fill="#FAFDFE" font-family="'TrebuchetMS'" font-size="19.6927">Organise events and lead</tspan><tspan x="0" y="23.631" fill="#FAFDFE" font-family="'TrebuchetMS'" font-size="19.6927">the group with the dreams</tspan><tspan x="0" y="47.263" fill="#FAFDFE" font-family="'TrebuchetMS'" font-size="19.6927">of yours</tspan></text>
		</g>
		<g>
			<text transform="matrix(1 0 0 1 296.3662 515.1631)" fill="#FFFBFC" font-family="'TrebuchetMS-Bold'" font-size="59.4314">CREATEIVE</text>
		</g>
		<text transform="matrix(1 0 0 1 345.3662 456.2227)" fill="#FFFBFC" font-family="'TrebuchetMS'" font-size="98.8258">BE</text>
	</g>
	<g>
		<path opacity="0.95" fill="#9AC765" d="M155.51,823.707c-2.344,4.482-8.412,5.938-13.557,3.25L-71.553,715.364
			c-5.144-2.688-7.414-8.504-5.07-12.987l89.427-171.092c2.343-4.485,8.413-5.94,13.557-3.251l213.506,111.592
			c5.143,2.689,7.414,8.504,5.069,12.988L155.51,823.707z"/>
		<text transform="matrix(0.8913 0 0 1 7.6211 601.5557)"><tspan x="0" y="0" fill="#FFFFFF" font-family="'TrebuchetMS'" font-size="37.707">WE </tspan><tspan x="0" y="45.248" fill="#FFFFFF" font-family="'TrebuchetMS'" font-size="37.707">WELCOME</tspan></text>
		<text transform="matrix(1 0 0 1 0.7979 676.8994)" fill="#FFFFFF" font-family="'TrebuchetMS'" font-size="23.2309">14 TO 34 YEARS OLD</text>
		<text transform="matrix(1 0 0 1 -1.3877 710.5439)" fill="#FFFFFF" font-family="'TrebuchetMS'" font-size="30.6185">To join the fun!</text>
	</g>
	<g>
		<path opacity="0.95" fill="#E20080" d="M401.103,954.632c-2.344,4.482-8.412,5.938-13.557,3.25L174.04,846.289
			c-5.144-2.688-7.414-8.504-5.07-12.987l89.427-171.092c2.343-4.485,8.413-5.94,13.557-3.251l213.506,111.592
			c5.143,2.689,7.414,8.504,5.069,12.988L401.103,954.632z"/>
		<text transform="matrix(1 0 0 1 238.6582 737.6182)" fill="#FFFFFF" font-family="'TrebuchetMS'" font-size="36.8092">Older?</text>
		<text transform="matrix(1 0 0 1 229.3984 766.4258)"><tspan x="0" y="0" fill="#85CEE3" font-family="'TrebuchetMS'" font-size="21.819">WE</tspan><tspan x="30.278" y="0" fill="#FFFFFF" font-family="'TrebuchetMS'" font-size="21.819"> welcomes anyone</tspan><tspan x="0" y="26.183" fill="#FFFFFF" font-family="'TrebuchetMS'" font-size="21.819">who are passionate to</tspan><tspan x="0" y="52.365" fill="#FFFFFF" font-family="'TrebuchetMS'" font-size="21.819">join the RC!</tspan></text>
	</g>
</g>
</svg>
